<?xml version="1.0" encoding="iso-8859-1"?>
<!-- Generator: Adobe Illustrator 19.0.0, SVG Export Plug-In . SVG Version: 6.00 Build 0)  -->
<svg version="1.1" id="Capa_1" xmlns="http://www.w3.org/2000/svg" xmlns:xlink="http://www.w3.org/1999/xlink" x="0px" y="0px"
	 viewBox="0 0 512 512" style="enable-background:new 0 0 512 512;" xml:space="preserve">
<g>
	<g>
		<g>
			<path d="M453.171,204.723h-6.158c-3.589-22.499-14.658-43.14-31.611-58.708c-18.772-17.238-43.155-26.731-68.658-26.731
				c-10.328,0-20.464,1.538-30.216,4.579c-8.858-14.794-20.365-27.451-33.727-37.5h138.144c16.48,0,29.889-13.408,29.889-29.889
				s-13.408-29.889-29.889-29.889c-16.48,0-29.889,13.408-29.889,29.889h15c0-8.21,6.679-14.889,14.889-14.889
				s14.889,6.679,14.889,14.889c0,8.21-6.679,14.889-14.889,14.889H257.446v0.069c-16.532-7.376-34.692-11.367-53.475-11.367
				c-69.523,0-126.588,54.372-130.897,122.828c-1.102-0.053-2.198-0.08-3.289-0.08C31.306,182.812,0,214.119,0,252.598
				s31.306,69.785,69.785,69.785h383.386c32.439,0,58.829-26.391,58.829-58.83S485.609,204.723,453.171,204.723z M453.171,307.383
				H69.785c-26.283,0-48.293-18.606-53.573-43.336h158.283c16.48,0,29.889-13.408,29.889-29.889
				c0-16.481-13.408-29.889-29.889-29.889s-29.89,13.408-29.89,29.889h15c0-8.21,6.68-14.889,14.89-14.889
				s14.889,6.679,14.889,14.889c0,8.209-6.679,14.889-14.889,14.889H15.128c1.838-28.558,25.643-51.234,54.658-51.234
				c3.043,0,6.161,0.268,9.267,0.798l8.759,1.493l0.001-8.886c0.004-64.047,52.112-116.153,116.159-116.153
				c42.946,0,82.221,23.553,102.497,61.467l3.12,5.836l6.179-2.369c9.886-3.791,20.307-5.713,30.976-5.713
				c42.278,0,77.501,29.75,85.056,70.439h-51.771v15h53.519h6.85h12.774c24.167,0,43.829,19.662,43.829,43.83
				S477.338,307.383,453.171,307.383z"/>
			<path d="M426.718,341.323c-16.48,0-29.889,13.408-29.889,29.889h15c0-8.209,6.679-14.889,14.889-14.889
				c8.21,0,14.889,6.679,14.889,14.889s-6.679,14.889-14.889,14.889H263.22v15h163.498c16.48,0,29.889-13.408,29.889-29.889
				C456.606,354.73,443.198,341.323,426.718,341.323z"/>
			<path d="M217.777,425.636c-16.48,0-29.889,13.408-29.889,29.889h15c0-8.21,6.679-14.889,14.889-14.889
				c8.21,0,14.889,6.679,14.889,14.889c0,8.209-6.679,14.889-14.889,14.889H54.279v15h163.498c16.48,0,29.889-13.408,29.889-29.889
				S234.258,425.636,217.777,425.636z"/>
			<rect x="342.37" y="204.719" width="17.23" height="15"/>
		</g>
	</g>
</g>
<g>
</g>
<g>
</g>
<g>
</g>
<g>
</g>
<g>
</g>
<g>
</g>
<g>
</g>
<g>
</g>
<g>
</g>
<g>
</g>
<g>
</g>
<g>
</g>
<g>
</g>
<g>
</g>
<g>
</g>
</svg>
